<mxfile host="app.diagrams.net" agent="Mozilla/5.0 (Windows NT 10.0; Win64; x64) AppleWebKit/537.36 (KHTML, like Gecko) Chrome/127.0.0.0 Safari/537.36" version="24.7.7">
  <diagram name="Page-1" id="-Q9g-FEw-4rKK5aSW_-p">
    <mxGraphModel dx="733" dy="1498" grid="1" gridSize="10" guides="1" tooltips="1" connect="1" arrows="1" fold="1" page="1" pageScale="1" pageWidth="850" pageHeight="1100" math="0" shadow="0">
      <root>
        <mxCell id="0" />
        <mxCell id="1" parent="0" />
        <mxCell id="wx5J87My5ah0jjZbc_Q6-1" value="" style="ellipse;whiteSpace=wrap;html=1;aspect=fixed;" vertex="1" parent="1">
          <mxGeometry x="40" y="210" width="80" height="80" as="geometry" />
        </mxCell>
        <mxCell id="wx5J87My5ah0jjZbc_Q6-4" value="" style="edgeStyle=orthogonalEdgeStyle;rounded=0;orthogonalLoop=1;jettySize=auto;html=1;" edge="1" parent="1" source="wx5J87My5ah0jjZbc_Q6-2" target="wx5J87My5ah0jjZbc_Q6-3">
          <mxGeometry relative="1" as="geometry" />
        </mxCell>
        <mxCell id="wx5J87My5ah0jjZbc_Q6-2" value="User" style="text;html=1;align=center;verticalAlign=middle;whiteSpace=wrap;rounded=0;" vertex="1" parent="1">
          <mxGeometry x="50" y="235" width="60" height="30" as="geometry" />
        </mxCell>
        <mxCell id="wx5J87My5ah0jjZbc_Q6-6" value="" style="edgeStyle=orthogonalEdgeStyle;rounded=0;orthogonalLoop=1;jettySize=auto;html=1;" edge="1" parent="1" source="wx5J87My5ah0jjZbc_Q6-3" target="wx5J87My5ah0jjZbc_Q6-5">
          <mxGeometry relative="1" as="geometry" />
        </mxCell>
        <mxCell id="wx5J87My5ah0jjZbc_Q6-3" value="Mengunjungi toko" style="whiteSpace=wrap;html=1;" vertex="1" parent="1">
          <mxGeometry x="160" y="160" width="120" height="60" as="geometry" />
        </mxCell>
        <mxCell id="wx5J87My5ah0jjZbc_Q6-8" value="" style="edgeStyle=orthogonalEdgeStyle;rounded=0;orthogonalLoop=1;jettySize=auto;html=1;" edge="1" parent="1" source="wx5J87My5ah0jjZbc_Q6-5" target="wx5J87My5ah0jjZbc_Q6-7">
          <mxGeometry relative="1" as="geometry" />
        </mxCell>
        <mxCell id="wx5J87My5ah0jjZbc_Q6-5" value="Melihat Produk" style="whiteSpace=wrap;html=1;" vertex="1" parent="1">
          <mxGeometry x="360" y="160" width="120" height="60" as="geometry" />
        </mxCell>
        <mxCell id="wx5J87My5ah0jjZbc_Q6-7" value="Membeli Produk" style="whiteSpace=wrap;html=1;" vertex="1" parent="1">
          <mxGeometry x="560" y="160" width="120" height="60" as="geometry" />
        </mxCell>
        <mxCell id="wx5J87My5ah0jjZbc_Q6-10" value="&lt;p style=&quot;line-height: 120%; font-size: 35px;&quot;&gt;Alur Bisnis Perusahaan&lt;/p&gt;" style="text;html=1;align=center;verticalAlign=middle;whiteSpace=wrap;rounded=0;fontSize=35;" vertex="1" parent="1">
          <mxGeometry x="390" y="40" width="60" height="50" as="geometry" />
        </mxCell>
      </root>
    </mxGraphModel>
  </diagram>
</mxfile>
